<svg viewBox="0 0 200 200" xmlns="http://www.w3.org/2000/svg" role="img" aria-label="共感的な支援者">
  <circle cx="100" cy="100" r="100" fill="#f9a8d4"/>
  <!-- 肩(上半身)。首のすぐ下から画面の外まではみ出す大きな1つの楕円にすることで、
       表示側の丸いクリップ(rounded-full)と合わせて自然な肩のなで肩カーブになる
       (左右2つの楕円+矩形にすると継ぎ目に背景色の隙間ができたため、1つにまとめた)。 -->
  <ellipse cx="100" cy="178" rx="92" ry="48" fill="#fb7185"/>
  <!-- 首 -->
  <rect x="84" y="110" width="32" height="45" fill="#c68642"/>
  <!-- 首と肩の境目のV字の襟(装飾) -->
  <path d="M85,148 L100,162 L115,148" fill="none" stroke="#d84e62" stroke-width="4" stroke-linecap="round" stroke-linejoin="round"/>
  <!-- 耳(頭部の下敷きになる分を先に描く) -->
  <circle cx="59" cy="90" r="8" fill="#c68642"/>
  <circle cx="141" cy="90" r="8" fill="#c68642"/>
  <!-- 頭部 -->
  <circle cx="100" cy="88" r="44" fill="#c68642"/>
  <ellipse cx="100" cy="54" rx="47" ry="30" fill="#4a2c1a"/><rect x="51" y="63" width="15" height="59" rx="8" fill="#4a2c1a"/><rect x="134" y="63" width="15" height="59" rx="8" fill="#4a2c1a"/>
  <circle cx="85" cy="83" r="4" fill="#292524"/>
  <circle cx="115" cy="83" r="4" fill="#292524"/>
  <line x1="76" y1="69" x2="90" y2="69" stroke="#292524" stroke-width="4" stroke-linecap="round"/>
    <line x1="110" y1="69" x2="124" y2="69" stroke="#292524" stroke-width="4" stroke-linecap="round"/>
  <path d="M98,90 Q95,98 100,100" fill="none" stroke="rgba(41,37,36,0.35)" stroke-width="2.5" stroke-linecap="round"/>
  <path d="M83,103 Q100,119 117,103" fill="none" stroke="#292524" stroke-width="4" stroke-linecap="round"/>
  
</svg>
